<svg width="16" height="15" viewBox="0 0 16 15" fill="none" xmlns="http://www.w3.org/2000/svg">
<path d="M7.55198 13.6135C7.68324 13.686 7.83105 13.723 7.98094 13.7211C8.13083 13.7192 8.27764 13.6783 8.40698 13.6025C10.199 12.579 13.312 10.222 14.5345 7.16055C16.3295 3.17405 12.1155 -0.00795376 9.20348 2.28055C8.89948 2.51955 8.51748 2.79255 8.25498 3.05155C8.13598 3.16855 7.92648 3.18055 7.80298 3.06805C7.45798 2.75405 6.91748 2.35055 6.57048 2.11605C4.08798 0.436046 -0.429516 2.65055 1.49748 7.37605C2.20348 9.49705 5.56698 12.506 7.55198 13.6135Z" fill="url(#paint0_radial_4106_360)"/>
<path d="M7.55198 13.6135C7.68324 13.686 7.83105 13.723 7.98094 13.7211C8.13083 13.7192 8.27764 13.6783 8.40698 13.6025C10.199 12.579 13.312 10.222 14.5345 7.16055C16.3295 3.17405 12.1155 -0.00795376 9.20348 2.28055C8.89948 2.51955 8.51748 2.79255 8.25498 3.05155C8.13598 3.16855 7.92648 3.18055 7.80298 3.06805C7.45798 2.75405 6.91748 2.35055 6.57048 2.11605C4.08798 0.436046 -0.429516 2.65055 1.49748 7.37605C2.20348 9.49705 5.56698 12.506 7.55198 13.6135Z" fill="url(#paint1_radial_4106_360)"/>
<path d="M7.55198 13.6135C7.68324 13.686 7.83105 13.723 7.98094 13.7211C8.13083 13.7192 8.27764 13.6783 8.40698 13.6025C10.199 12.579 13.312 10.222 14.5345 7.16055C16.3295 3.17405 12.1155 -0.00795376 9.20348 2.28055C8.89948 2.51955 8.51748 2.79255 8.25498 3.05155C8.13598 3.16855 7.92648 3.18055 7.80298 3.06805C7.45798 2.75405 6.91748 2.35055 6.57048 2.11605C4.08798 0.436046 -0.429516 2.65055 1.49748 7.37605C2.20348 9.49705 5.56698 12.506 7.55198 13.6135Z" fill="url(#paint2_linear_4106_360)"/>
<path d="M7.55198 13.6135C7.68324 13.686 7.83105 13.723 7.98094 13.7211C8.13083 13.7192 8.27764 13.6783 8.40698 13.6025C10.199 12.579 13.312 10.222 14.5345 7.16055C16.3295 3.17405 12.1155 -0.00795376 9.20348 2.28055C8.89948 2.51955 8.51748 2.79255 8.25498 3.05155C8.13598 3.16855 7.92648 3.18055 7.80298 3.06805C7.45798 2.75405 6.91748 2.35055 6.57048 2.11605C4.08798 0.436046 -0.429516 2.65055 1.49748 7.37605C2.20348 9.49705 5.56698 12.506 7.55198 13.6135Z" fill="url(#paint3_radial_4106_360)"/>
<path d="M7.55198 13.6135C7.68324 13.686 7.83105 13.723 7.98094 13.7211C8.13083 13.7192 8.27764 13.6783 8.40698 13.6025C10.199 12.579 13.312 10.222 14.5345 7.16055C16.3295 3.17405 12.1155 -0.00795376 9.20348 2.28055C8.89948 2.51955 8.51748 2.79255 8.25498 3.05155C8.13598 3.16855 7.92648 3.18055 7.80298 3.06805C7.45798 2.75405 6.91748 2.35055 6.57048 2.11605C4.08798 0.436046 -0.429516 2.65055 1.49748 7.37605C2.20348 9.49705 5.56698 12.506 7.55198 13.6135Z" fill="url(#paint4_linear_4106_360)"/>
<path d="M7.55198 13.6135C7.68324 13.686 7.83105 13.723 7.98094 13.7211C8.13083 13.7192 8.27764 13.6783 8.40698 13.6025C10.199 12.579 13.312 10.222 14.5345 7.16055C16.3295 3.17405 12.1155 -0.00795376 9.20348 2.28055C8.89948 2.51955 8.51748 2.79255 8.25498 3.05155C8.13598 3.16855 7.92648 3.18055 7.80298 3.06805C7.45798 2.75405 6.91748 2.35055 6.57048 2.11605C4.08798 0.436046 -0.429516 2.65055 1.49748 7.37605C2.20348 9.49705 5.56698 12.506 7.55198 13.6135Z" fill="url(#paint5_radial_4106_360)"/>
<path d="M7.55198 13.6135C7.68324 13.686 7.83105 13.723 7.98094 13.7211C8.13083 13.7192 8.27764 13.6783 8.40698 13.6025C10.199 12.579 13.312 10.222 14.5345 7.16055C16.3295 3.17405 12.1155 -0.00795376 9.20348 2.28055C8.89948 2.51955 8.51748 2.79255 8.25498 3.05155C8.13598 3.16855 7.92648 3.18055 7.80298 3.06805C7.45798 2.75405 6.91748 2.35055 6.57048 2.11605C4.08798 0.436046 -0.429516 2.65055 1.49748 7.37605C2.20348 9.49705 5.56698 12.506 7.55198 13.6135Z" fill="url(#paint6_radial_4106_360)"/>
<path d="M7.55198 13.6135C7.68324 13.686 7.83105 13.723 7.98094 13.7211C8.13083 13.7192 8.27764 13.6783 8.40698 13.6025C10.199 12.579 13.312 10.222 14.5345 7.16055C16.3295 3.17405 12.1155 -0.00795376 9.20348 2.28055C8.89948 2.51955 8.51748 2.79255 8.25498 3.05155C8.13598 3.16855 7.92648 3.18055 7.80298 3.06805C7.45798 2.75405 6.91748 2.35055 6.57048 2.11605C4.08798 0.436046 -0.429516 2.65055 1.49748 7.37605C2.20348 9.49705 5.56698 12.506 7.55198 13.6135Z" fill="url(#paint7_radial_4106_360)"/>
<path d="M7.6094 2.91604L7.7829 3.07504C8.2599 3.51154 9.0324 3.39004 9.4654 2.91004C9.9219 2.40304 10.5354 1.87804 11.2774 1.51404C10.5759 1.52904 9.8569 1.76754 9.2034 2.28104L8.9659 2.46454C8.7174 2.65454 8.4524 2.85704 8.2549 3.05154C8.1359 3.16854 7.9264 3.18054 7.8029 3.06854C7.7429 3.01387 7.67807 2.9572 7.6084 2.89854L7.6094 2.91604Z" fill="url(#paint8_linear_4106_360)"/>
<g filter="url(#filter0_f_4106_360)">
<path d="M7.91051 4.12111L8.10051 7.25111C8.13151 7.76861 8.88901 7.93011 9.15751 7.48711C10.322 5.56811 11.378 4.29211 10.406 3.15061C9.99601 2.66861 8.91251 2.92911 8.04951 3.75311C8.00085 3.80056 7.96319 3.8581 7.93918 3.92168C7.91516 3.98526 7.90538 4.05334 7.91051 4.12111Z" fill="url(#paint9_radial_4106_360)"/>
</g>
<g filter="url(#filter1_f_4106_360)">
<path d="M13.8275 7.02773C14.6439 5.04438 14.2527 3.00311 12.9537 2.46842C11.6547 1.93373 9.93984 3.1081 9.12346 5.09145C8.30707 7.07479 8.69831 9.11607 9.9973 9.65076C11.2963 10.1855 13.0112 9.01108 13.8275 7.02773Z" fill="url(#paint10_radial_4106_360)"/>
</g>
<g filter="url(#filter2_f_4106_360)">
<path d="M7.41997 3.60358L7.52247 10.3066C4.08497 6.96308 3.46947 3.38008 4.63847 2.57658C5.47347 2.00308 7.04497 2.82208 7.41997 3.60358Z" fill="url(#paint11_radial_4106_360)"/>
</g>
<g filter="url(#filter3_f_4106_360)">
<path d="M4.21997 2.22003C4.76347 2.15203 6.23247 2.22003 7.41997 3.93603" stroke="url(#paint12_linear_4106_360)" stroke-width="0.125" stroke-linecap="round"/>
</g>
<g filter="url(#filter4_f_4106_360)">
<path d="M1.8125 5.77502C2.844 9.80652 6.5525 12.39 7.8125 13.1815C6.3625 10.5565 5.0315 5.41052 5 4.24402L1.8125 5.77502Z" fill="url(#paint13_linear_4106_360)"/>
</g>
<defs>
<filter id="filter0_f_4106_360" x="6.90918" y="1.90942" width="4.87866" height="6.83508" filterUnits="userSpaceOnUse" color-interpolation-filters="sRGB">
<feFlood flood-opacity="0" result="BackgroundImageFix"/>
<feBlend mode="normal" in="SourceGraphic" in2="BackgroundImageFix" result="shape"/>
<feGaussianBlur stdDeviation="0.5" result="effect1_foregroundBlur_4106_360"/>
</filter>
<filter id="filter1_f_4106_360" x="7.94727" y="1.58923" width="7.05664" height="8.94067" filterUnits="userSpaceOnUse" color-interpolation-filters="sRGB">
<feFlood flood-opacity="0" result="BackgroundImageFix"/>
<feBlend mode="normal" in="SourceGraphic" in2="BackgroundImageFix" result="shape"/>
<feGaussianBlur stdDeviation="0.375" result="effect1_foregroundBlur_4106_360"/>
</filter>
<filter id="filter2_f_4106_360" x="2.59619" y="0.884399" width="6.42627" height="10.9221" filterUnits="userSpaceOnUse" color-interpolation-filters="sRGB">
<feFlood flood-opacity="0" result="BackgroundImageFix"/>
<feBlend mode="normal" in="SourceGraphic" in2="BackgroundImageFix" result="shape"/>
<feGaussianBlur stdDeviation="0.75" result="effect1_foregroundBlur_4106_360"/>
</filter>
<filter id="filter3_f_4106_360" x="3.65747" y="1.64111" width="4.32495" height="2.85742" filterUnits="userSpaceOnUse" color-interpolation-filters="sRGB">
<feFlood flood-opacity="0" result="BackgroundImageFix"/>
<feBlend mode="normal" in="SourceGraphic" in2="BackgroundImageFix" result="shape"/>
<feGaussianBlur stdDeviation="0.25" result="effect1_foregroundBlur_4106_360"/>
</filter>
<filter id="filter4_f_4106_360" x="0.8125" y="3.24402" width="8" height="10.9375" filterUnits="userSpaceOnUse" color-interpolation-filters="sRGB">
<feFlood flood-opacity="0" result="BackgroundImageFix"/>
<feBlend mode="normal" in="SourceGraphic" in2="BackgroundImageFix" result="shape"/>
<feGaussianBlur stdDeviation="0.5" result="effect1_foregroundBlur_4106_360"/>
</filter>
<radialGradient id="paint0_radial_4106_360" cx="0" cy="0" r="1" gradientUnits="userSpaceOnUse" gradientTransform="translate(7.88498 1.83005) rotate(90) scale(11.9142 14.7312)">
<stop offset="0.255" stop-color="#AC3BFF"/>
<stop offset="0.528" stop-color="#9D32FF"/>
<stop offset="1" stop-color="#8C1EED"/>
</radialGradient>
<radialGradient id="paint1_radial_4106_360" cx="0" cy="0" r="1" gradientUnits="userSpaceOnUse" gradientTransform="translate(6.10723 13.8579) rotate(-57.293) scale(15.1525 14.1914)">
<stop offset="0.801" stop-color="#B350FF" stop-opacity="0"/>
<stop offset="1" stop-color="#B350FF"/>
</radialGradient>
<linearGradient id="paint2_linear_4106_360" x1="8.81598" y1="7.07955" x2="12.8225" y2="11.847" gradientUnits="userSpaceOnUse">
<stop offset="0.694" stop-color="#B694FF" stop-opacity="0"/>
<stop offset="0.934" stop-color="#9F72FF"/>
</linearGradient>
<radialGradient id="paint3_radial_4106_360" cx="0" cy="0" r="1" gradientUnits="userSpaceOnUse" gradientTransform="translate(11.2499 4.74426) rotate(140.774) scale(9.88335 14.1486)">
<stop offset="0.752" stop-color="#6721FD" stop-opacity="0"/>
<stop offset="1" stop-color="#7F21FD"/>
</radialGradient>
<linearGradient id="paint4_linear_4106_360" x1="8.31949" y1="7.27805" x2="3.59398" y2="12.603" gradientUnits="userSpaceOnUse">
<stop offset="0.694" stop-color="#9F72FF" stop-opacity="0"/>
<stop offset="0.885" stop-color="#B694FF"/>
</linearGradient>
<radialGradient id="paint5_radial_4106_360" cx="0" cy="0" r="1" gradientUnits="userSpaceOnUse" gradientTransform="translate(10.9997 6.49368) rotate(-154.781) scale(10.7082 9.31305)">
<stop offset="0.716" stop-color="#773CAC" stop-opacity="0"/>
<stop offset="1" stop-color="#773CAC"/>
</radialGradient>
<radialGradient id="paint6_radial_4106_360" cx="0" cy="0" r="1" gradientUnits="userSpaceOnUse" gradientTransform="translate(8.56224 7.99416) rotate(-129.075) scale(9.4195 13.5491)">
<stop offset="0.663" stop-color="#773CAC" stop-opacity="0"/>
<stop offset="1" stop-color="#773CAC"/>
</radialGradient>
<radialGradient id="paint7_radial_4106_360" cx="0" cy="0" r="1" gradientUnits="userSpaceOnUse" gradientTransform="translate(7.72031 5.91215) rotate(90) scale(8.7495 10.0264)">
<stop offset="0.821" stop-color="#9F72FF" stop-opacity="0"/>
<stop offset="0.934" stop-color="#B694FF"/>
</radialGradient>
<linearGradient id="paint8_linear_4106_360" x1="8.5624" y1="2.72254" x2="9.4434" y2="3.43154" gradientUnits="userSpaceOnUse">
<stop stop-color="#7241AD"/>
<stop offset="0.68" stop-color="#7241AD" stop-opacity="0"/>
</linearGradient>
<radialGradient id="paint9_radial_4106_360" cx="0" cy="0" r="1" gradientUnits="userSpaceOnUse" gradientTransform="translate(11.0625 2.11927) rotate(107.322) scale(6.6124 7.4057)">
<stop offset="0.568" stop-color="#8E26E9"/>
<stop offset="1" stop-color="#6721FD" stop-opacity="0"/>
</radialGradient>
<radialGradient id="paint10_radial_4106_360" cx="0" cy="0" r="1" gradientUnits="userSpaceOnUse" gradientTransform="translate(13.9374 1.72779) rotate(118.831) scale(7.7764 3.68355)">
<stop stop-color="#D28CFF"/>
<stop offset="1" stop-color="#C874FF" stop-opacity="0"/>
</radialGradient>
<radialGradient id="paint11_radial_4106_360" cx="0" cy="0" r="1" gradientUnits="userSpaceOnUse" gradientTransform="translate(8.31244 6.34575) rotate(-134.829) scale(5.5852 3.69525)">
<stop stop-color="#D28CFF"/>
<stop offset="1" stop-color="#C874FF" stop-opacity="0"/>
</radialGradient>
<linearGradient id="paint12_linear_4106_360" x1="3.53147" y1="2.17353" x2="6.78147" y2="2.49403" gradientUnits="userSpaceOnUse">
<stop stop-color="#C274FF"/>
<stop offset="1" stop-color="#B659FF" stop-opacity="0"/>
</linearGradient>
<linearGradient id="paint13_linear_4106_360" x1="9.2815" y1="14.2125" x2="5.2815" y2="7.33752" gradientUnits="userSpaceOnUse">
<stop stop-color="#7C22FD"/>
<stop offset="1" stop-color="#7C22FD" stop-opacity="0"/>
</linearGradient>
</defs>
</svg>
